<svg viewBox="0 0 24 23.75" xmlns="http://www.w3.org/2000/svg"><g data-name="Camada 2"><g data-name="Camada 1"><path d="M23.5 12.24h-1.11a7 7 0 0 0-4.12-4.51 4.74 4.74 0 0 0 1-2.94 4.79 4.79 0 0 0-9.58 0 4.74 4.74 0 0 0 1.13 3.06c-.58.16-1.44.43-2.53.83a16.54 16.54 0 0 0-3.04-3.17.5.5 0 0 0-.81.4V11A18.66 18.66 0 0 0 2 13.36H.5a.5.5 0 0 0-.5.5v3.73a.5.5 0 0 0 .3.46l6.95 3v1.22a1.5 1.5 0 0 0 1.49 1.49h1.53a1.5 1.5 0 0 0 1.49-1.49V21.2h3.85v1.05a1.5 1.5 0 0 0 1.49 1.49h1.53a1.5 1.5 0 0 0 1.49-1.49v-2.67a6.79 6.79 0 0 0 2.47-6.35h.89a.5.5 0 0 0 0-1ZM14.52 1a3.79 3.79 0 1 1-3.79 3.79A3.79 3.79 0 0 1 14.52 1Zm4.82 18-.07.08v.07a.5.5 0 0 0 0 .09.52.52 0 0 0 0 .1v2.9a.5.5 0 0 1-.49.49h-1.66a.5.5 0 0 1-.49-.49v-1.6a61.24 61.24 0 0 1 0-.18l-.05-.08-.06-.08h-.07l-.09-.05h-5.09a.5.5 0 0 0-.5.5v1.55a.5.5 0 0 1-.49.49H8.75a.5.5 0 0 1-.49-.49v-1.59a.49.49 0 0 0 0-.16.47.47 0 0 0-.05-.08.35.35 0 0 0-.21-.21l-7-3v-2.9h1.24a.5.5 0 0 0 .4-.19 17.11 17.11 0 0 1 2.62-2.56l.07-.08v-.07a.47.47 0 0 0 0-.09.48.48 0 0 0 0-.1V7A11.48 11.48 0 0 1 7.7 9.52a.49.49 0 0 0 .15.16.49.49 0 0 0 .22.07h.23c1.74-.64 3-1 3.41-1.09a4.7 4.7 0 0 0 5.79-.16A6 6 0 0 1 19.34 19Z" fill="#ffffff" class="fill-000000"></path><circle cx="5.38" cy="14.02" r=".96" fill="#ffffff" class="fill-000000"></circle><path d="M17.88 10.11h-6.73a.5.5 0 0 0 0 1h6.73a.5.5 0 0 0 0-1Z" fill="#ffffff" class="fill-000000"></path></g></g></svg>