<!--<svg xmlns="http://www.w3.org/2000/svg" viewBox="0 0 1 1"><path d="m0,0v1h1V0" fill="#171717"/></svg>-->
<svg data-name="Layer 1" id="Layer_1" viewBox="0 0 512 512" xmlns="http://www.w3.org/2000/svg"><path d="M262.74,136.92c51.94,0,85.09-16.61,85.09-28V77.53c-19.89,12.4-52.61,18.78-85.09,18.78s-65.19-6.38-85.07-18.77v31.33C177.67,120.31,210.82,136.92,262.74,136.92Z" /><path d="M262.74,77.18c51.94,0,85.09-16.6,85.09-28s-33.15-28-85.09-28S177.67,37.7,177.67,49.14,210.82,77.18,262.74,77.18Z" /><path d="M127.21,191.87c19.86,0,36.9-2.45,50.46-6.08,3.52-.95,6.71-2,9.74-3.08,1.13-.4,2.22-.8,3.28-1.23a81,81,0,0,0,7.78-3.49c.64-.33,1.15-.67,1.74-1a45.75,45.75,0,0,0,5.11-3.32c.43-.32.91-.64,1.3-1a21.31,21.31,0,0,0,3.78-4c.21-.3.37-.59.54-.89a6.55,6.55,0,0,0,0-8c-.17-.3-.33-.59-.54-.89a21.31,21.31,0,0,0-3.78-4c-.39-.32-.87-.64-1.3-1a48.41,48.41,0,0,0-5.12-3.32c-.59-.33-1.09-.67-1.72-1a81.21,81.21,0,0,0-7.79-3.49c-1.06-.42-2.15-.83-3.28-1.23-3-1.09-6.22-2.13-9.74-3.08-13.56-3.64-30.6-6.09-50.46-6.09-51.92,0-85.07,16.63-85.07,28.06S75.29,191.87,127.21,191.87Z" /><path d="M497.53,300.46a9.54,9.54,0,0,0-13.24-2.7L223.71,470.46,26.38,381.26a9.56,9.56,0,1,0-7.88,17.43l202.14,91.38a9.69,9.69,0,0,0,3.94.84,9.45,9.45,0,0,0,5.27-1.59l265-175.62A9.54,9.54,0,0,0,497.53,300.46Z" /><path d="M18.39,356.56l57.87,27.05,98.08,45.84,45.77,21.4a9.63,9.63,0,0,0,9.39-.73l38.67-26,0,0,166.91-112h0l53.05-35.63a9.55,9.55,0,0,0-1.27-16.6l-57.74-27h0l-81.32-38v-58C327.71,149.43,294.61,156,262.74,156a232,232,0,0,1-33.55-2.48,25.43,25.43,0,0,1,2.22,10.27v41.61l-19.11,12V191.84a80,80,0,0,1-7.76,4.22c-1.3.63-2.73,1.19-4.1,1.78s-2.91,1.28-4.46,1.87c-1.92.73-3.95,1.39-6,2-1.1.35-2.17.73-3.29,1.07-2.3.69-4.69,1.31-7.09,1.91A218.76,218.76,0,0,1,127.21,211c-31.86,0-64.95-6.59-85.07-19.14v31.7c0,11.44,33.15,28.06,85.07,28.06a214.91,214.91,0,0,0,35-2.75l-34.82,21.86h-.22c-32.47,0-65.18-6.38-85.07-18.78v31.34c0,6.72,11.77,15.13,31.84,21L71.28,306,17.35,339.8a9.57,9.57,0,0,0,1,16.76Zm204.93,74.66L192.5,416.83c.14-.17.22-.38.37-.54.48-.55,1.06-1,1.57-1.5a39.18,39.18,0,0,1,5.82-4.89,30.54,30.54,0,0,1,2.69-1.63,37.54,37.54,0,0,1,6.3-2.83c.94-.33,1.85-.7,2.81-1a35.43,35.43,0,0,1,18.63-.26c.86.21,1.69.5,2.54.76a39.43,39.43,0,0,1,5.85,2.34c.83.42,1.67.83,2.47,1.3a39.7,39.7,0,0,1,5.84,4.27c.4.35.85.63,1.23,1,.07.07.12.16.19.23ZM429.66,258.15c.14-.67.26-1.33.42-2,.12-.5.38-1,.52-1.49L463.48,270l-30.31,20.35c-.22-.49-.38-1-.59-1.5a55,55,0,0,1-2.45-7.62c-.22-.89-.44-1.78-.61-2.68a54.37,54.37,0,0,1-1-10A52.2,52.2,0,0,1,429.66,258.15ZM292.09,189.91l29.29,13.7c-.17.2-.27.47-.44.67-.61.7-1.33,1.28-2,1.94a39.41,39.41,0,0,1-5.52,4.73c-.92.64-1.88,1.22-2.85,1.79a39.46,39.46,0,0,1-6.34,2.9c-1,.35-1.9.76-2.9,1a38.13,38.13,0,0,1-10,1.46,38.78,38.78,0,0,1-8.84-1.13c-.86-.21-1.69-.5-2.52-.76a38.15,38.15,0,0,1-5.94-2.38c-.79-.4-1.6-.78-2.37-1.24a39.43,39.43,0,0,1-6.4-4.7c-.21-.2-.46-.34-.67-.54,0,0-.08-.11-.13-.16ZM248,217.63c.27.3.62.52.89.82a58,58,0,0,0,7.93,7.28c.1.07.19.17.3.25a58,58,0,0,0,9.37,5.51c.61.29,1.2.59,1.82.86a56.16,56.16,0,0,0,10,3.32c.64.15,1.29.25,1.93.38a58.11,58.11,0,0,0,11.15,1.19,57,57,0,0,0,7.76-.57c.84-.11,1.65-.32,2.48-.47,1.71-.31,3.41-.66,5.07-1.12.94-.26,1.85-.57,2.77-.88,1.52-.51,3-1.06,4.49-1.69.92-.39,1.81-.8,2.7-1.23,1.45-.71,2.84-1.48,4.22-2.3.82-.49,1.64-1,2.44-1.49,1.46-1,2.85-2,4.23-3.14.61-.49,1.26-.94,1.85-1.46A58.51,58.51,0,0,0,339.22,212l73.69,34.44c-.46,1.42-.66,2.87-1,4.3-.33,1.26-.66,2.52-.92,3.8a70.76,70.76,0,0,0-1.59,14.05,73.75,73.75,0,0,0,.73,9.87c.14,1,.35,2,.53,3,.4,2.29.9,4.55,1.52,6.78.3,1.06.6,2.12.94,3.16a73.93,73.93,0,0,0,2.7,7c.33.73.59,1.48.94,2.19.11.24.19.48.3.71l-152,102c-.27-.3-.61-.51-.89-.8a58,58,0,0,0-8-7.27.69.69,0,0,1-.13-.11,57.4,57.4,0,0,0-9.32-5.41c-.62-.3-1.22-.61-1.85-.88a57.74,57.74,0,0,0-9.91-3.25c-.66-.15-1.33-.25-2-.38a58.34,58.34,0,0,0-11-1.16,57.52,57.52,0,0,0-12.64,1.52c-.66.15-1.33.25-2,.42a57.59,57.59,0,0,0-11.11,4.19c-.68.34-1.34.7-2,1.07a57.88,57.88,0,0,0-9.91,6.77c-.34.3-.64.64-1,.94a58.4,58.4,0,0,0-8,8.92c-.18.24-.42.41-.59.65l-82.16-38.4c.45-1.4.65-2.83,1-4.24.33-1.25.65-2.5.9-3.76a70.58,70.58,0,0,0,1.56-14,71.34,71.34,0,0,0-1.55-14c-.21-1.1-.44-2.18-.71-3.27a73.07,73.07,0,0,0-4.49-13.17c-.05-.11-.06-.23-.11-.34ZM72.61,327.68c.21.5.37,1,.56,1.52a53.21,53.21,0,0,1,2.14,7c.2.86.41,1.71.57,2.58a52.24,52.24,0,0,1,.94,9.33,51.69,51.69,0,0,1-1.17,10.34c-.13.64-.24,1.29-.39,1.94-.12.48-.36.94-.49,1.41L42.39,346.67Z" /><path d="M204.44,280.64a58.78,58.78,0,0,0-4.05,11A41.31,41.31,0,0,0,199.32,308a34.5,34.5,0,0,0,5.29,14.18A30.64,30.64,0,0,0,216,332.36a34.49,34.49,0,0,0,26.65,1.89c7.56-2.62,14.75-7.72,20.9-14.82l28.67,18.75c-3.88,4.41-7.74,7.41-11.52,8.92-5,2-9.48,2.29-13.26,1-4.18-2-9-.45-11.94,3.79a9.63,9.63,0,0,0-1.91,8.07,7.57,7.57,0,0,0,5.18,5.51,34.06,34.06,0,0,0,28.8-1.26,60.94,60.94,0,0,0,19.71-16.18l2.17,1.41a9.48,9.48,0,0,0,8.54,1.19,11.36,11.36,0,0,0,5.64-4.44,12.21,12.21,0,0,0,1.93-6.86,9.38,9.38,0,0,0-4.39-7.75L318.77,330c3.67-8.27,4.78-15.86,3.31-22.6-1.77-8.11-5.49-14.38-11-18.61a36.69,36.69,0,0,0-9.82-5.67,33.73,33.73,0,0,0-12.87-2.3h-.05a35.38,35.38,0,0,0-14.24,4,46.46,46.46,0,0,0-11.53,8.31L233.39,274a26.3,26.3,0,0,1,6.47-1.88,16.19,16.19,0,0,1,5.89.23,27.31,27.31,0,0,1,6.08,2.29c5.67,2.78,10.32-.11,12.45-4.19,2.16-4.26,1.15-8.76-3.19-13-8.47-5.26-17.2-6.8-26-4.51a40.29,40.29,0,0,0-18,10.32L213.53,261a9.79,9.79,0,0,0-8.69-1c-5.12,1.94-7.9,6.43-7.43,12.12a9.56,9.56,0,0,0,4.38,6.77Zm81.46,19.44c4-.63,8.4.7,13.79,4.3l.37.3a9.47,9.47,0,0,1,1.93,2.14,12,12,0,0,1,1.93,3.85,18,18,0,0,1,.22,6.52,14.83,14.83,0,0,1-.64,2.82l-25.07-16.44A18.73,18.73,0,0,1,285.9,300.08Zm-66.3-9.49,28.48,18.68a28.17,28.17,0,0,1-4.3,3.37,30.24,30.24,0,0,1-8,3.69,10.49,10.49,0,0,1-4.81.34,21.16,21.16,0,0,1-4.95-1.74,16.39,16.39,0,0,1-8.13-11.78C217.22,299.4,217.78,295.18,219.6,290.59Z" /></svg>