<?xml version="1.0" encoding="UTF-8"?>
<!--Generator: Apple Native CoreSVG 175.5-->
<!DOCTYPE svg
PUBLIC "-//W3C//DTD SVG 1.1//EN"
       "http://www.w3.org/Graphics/SVG/1.1/DTD/svg11.dtd">
<svg version="1.1" xmlns="http://www.w3.org/2000/svg" xmlns:xlink="http://www.w3.org/1999/xlink" width="17.334" height="21.9238">
 <g>
  <rect height="21.9238" opacity="0" width="17.334" x="0" y="0"/>
  <path d="M0 16.9336C0 18.9551 1.02539 19.9609 3.06641 19.9609L14.5605 19.9609C16.3086 19.9609 17.334 18.9453 17.334 16.9336L17.334 6.82617C17.334 4.81445 16.2988 3.79883 14.2676 3.79883L12.7051 3.79883C12.6562 1.74805 10.8691 0 8.66211 0C6.45508 0 4.67773 1.74805 4.61914 3.79883L3.06641 3.79883C1.02539 3.79883 0 4.80469 0 6.82617ZM1.57227 16.8555L1.57227 6.9043C1.57227 5.88867 2.10938 5.37109 3.08594 5.37109L14.2383 5.37109C15.2051 5.37109 15.7617 5.88867 15.7617 6.9043L15.7617 16.8555C15.7617 17.8711 15.2051 18.3887 14.5312 18.3887L3.08594 18.3887C2.10938 18.3887 1.57227 17.8711 1.57227 16.8555ZM6.19141 3.79883C6.24023 2.5293 7.28516 1.48438 8.66211 1.48438C10.0391 1.48438 11.0938 2.5293 11.1328 3.79883Z" fill="#ffffff" fill-opacity="0.85"/>
 </g>
</svg>
