<?xml version="1.0" encoding="UTF-8"?>
<!--Generator: Apple Native CoreSVG 175.5-->
<!DOCTYPE svg
PUBLIC "-//W3C//DTD SVG 1.1//EN"
       "http://www.w3.org/Graphics/SVG/1.1/DTD/svg11.dtd">
<svg version="1.1" xmlns="http://www.w3.org/2000/svg" xmlns:xlink="http://www.w3.org/1999/xlink" width="23.114" height="20.752">
 <g>
  <rect height="20.752" opacity="0" width="23.114" x="0" y="0"/>
  <path d="M1.3855 15.3223C3.25073 17.168 5.68238 17.1777 7.51831 15.3418L14.8035 8.05664C16.6394 6.2207 16.6394 3.75977 14.7839 1.92383C12.9285 0.078125 10.4871 0.078125 8.65113 1.91406L1.37573 9.18945C-0.460203 11.0254-0.460203 13.4863 1.3855 15.3223ZM2.50855 14.1992C1.34644 13.0371 1.3855 11.416 2.59644 10.2051L9.66675 3.13477C10.8777 1.91406 12.4988 1.875 13.6609 3.04688C14.8328 4.21875 14.7937 5.83008 13.573 7.05078L6.51245 14.1113C5.29175 15.332 3.68042 15.3711 2.50855 14.1992ZM5.15503 6.80664L9.91089 11.5527L11.0339 10.4297L6.27808 5.68359ZM17.7722 20.752C20.7312 20.752 23.114 18.3691 23.114 15.4199C23.114 12.5 20.7214 10.1074 17.7722 10.1074C14.8425 10.1074 12.45 12.5 12.45 15.4199C12.45 18.3594 14.8425 20.752 17.7722 20.752ZM17.7722 19.1797C15.7019 19.1797 14.0222 17.4902 14.0222 15.4199C14.0222 13.3594 15.7117 11.6797 17.7722 11.6797C19.8523 11.6797 21.5418 13.3594 21.5418 15.4199C21.5418 17.5098 19.8621 19.1797 17.7722 19.1797ZM13.3386 16.2207L22.2156 16.2207L22.2156 14.6289L13.3386 14.6289Z" fill="#ffffff" fill-opacity="0.85"/>
 </g>
</svg>
